# xmcd
#
# Track frame offsets: 
#        150
#        13749
#        27636
#        40936
#        54229
#        66872
#        80465
#        90827
#        103245
#        115497
#        131713
#        143843
#        155268
#        166267
#
# Disc length: 2416 seconds
#
# Revision: 0
# Processed by: cddbd v1.5.2PL0 Copyright (c) Steve Scherf et al.
# Submitted via: ExactAudioCopy v0.95b4
#
DISCID=b6096e0e
DTITLE=B. B. King - Kings Of Blues CD 3
DYEAR=2006
DGENRE=Blues
TTITLE0=3 O'Clock Blues
TTITLE1=You Know I Love You
TTITLE2=Story From My Heart And Soul
TTITLE3=Woke Up This Morning
TTITLE4=Please Love Me
TTITLE5=Blind Love
TTITLE6=Fine Looking Woman
TTITLE7=I Gotta Find My Baby
TTITLE8=My Baby Is Gone
TTITLE9=The Other Night Blues
TTITLE10=Miss Martha King
TTITLE11=She's A Mean Woman
TTITLE12=When your Baby Packs Up And Goes
TTITLE13=My Own Fault Darlin'
EXTD=
EXTT0=
EXTT1=
EXTT2=
EXTT3=
EXTT4=
EXTT5=
EXTT6=
EXTT7=
EXTT8=
EXTT9=
EXTT10=
EXTT11=
EXTT12=
EXTT13=
PLAYORDER=
